# xmcd CD database file
#
# Track frame offsets:
#	150
#	22185
#	45437
#	59692
#	76345
#	94937
#	109352
#	134027
#	153157
#	173690
#	199147
#	224425
#	240862
#	250382
#
# Disc length: 3580 seconds
#
# Revision: 2
# Processed by: cddbd v1.5.2PL0 Copyright (c) Steve Scherf et al.
# Submitted via: CDex 1.77
#
DISCID=c50dfa0e
DTITLE=Sheryl Crow - Tuesday Night Music Club
DYEAR=1993
DGENRE=Country
TTITLE0=Run, Baby Run
TTITLE1=Leaving Las Vegas
TTITLE2=Strong Enough
TTITLE3=Can't Cry Anymore
TTITLE4=Solidfy
TTITLE5=The Na-Na Song
TTITLE6=No One Said It Would Be Easy
TTITLE7=What I Can Do For You
TTITLE8=All I Wanna Do
TTITLE9=We Do What We Can
TTITLE10=I Shall Believe
TTITLE11=I'm Gonna Be A Wheel Someday
TTITLE12=Volvo Cowgirl
TTITLE13=Reach Around Jerk
EXTD=YEAR: 1993
EXTT0=
EXTT1=
EXTT2=
EXTT3=
EXTT4=
EXTT5=
EXTT6=
EXTT7=
EXTT8=
EXTT9=
EXTT10=
EXTT11=
EXTT12=
EXTT13=
PLAYORDER=
